<svg width="161" height="94" viewBox="0 0 161 94" fill="none" xmlns="http://www.w3.org/2000/svg">
<g clip-path="url(#clip0_1333_2799)">
<path d="M23.6595 25.4602V38.9353H14.9071V25.3515L0.265869 0.900635H9.55849L19.6615 17.7989L29.7645 0.900635H38.3548L23.6595 25.4602Z" fill="#0B0A0A"/>
<path d="M70.9329 31.8717V38.9353H41.6504V0.900635H70.2306V7.96422H50.3487V16.2232H67.9074V23.0531H50.3487V31.8554L70.9329 31.8717Z" fill="#FAFAFA"/>
<path d="M81.6574 38.3648C79.2399 37.7305 76.9596 36.653 74.931 35.1862L77.9025 28.5573C79.6631 29.8234 81.6151 30.7958 83.6834 31.4371C85.8463 32.1493 88.1068 32.516 90.3827 32.5238C92.8679 32.5238 94.7048 32.1525 95.8934 31.4099C96.4296 31.1252 96.8788 30.6993 97.1928 30.1777C97.5068 29.6561 97.674 29.0584 97.6763 28.4486C97.6806 28.0146 97.5853 27.5853 97.3979 27.1943C97.2105 26.8032 96.936 26.4608 96.5958 26.1937C95.7953 25.5443 94.8782 25.0555 93.8945 24.7538C92.8139 24.3916 91.3282 23.9931 89.4372 23.5585C87.0393 23.0126 84.6759 22.3231 82.3597 21.4937C80.5298 20.8102 78.903 19.6696 77.6324 18.1793C76.3177 16.6579 75.6604 14.6294 75.6604 12.0937C75.6385 9.95727 76.2601 7.86419 77.4433 6.08968C78.7848 4.17256 80.6529 2.69032 82.819 1.82436C85.6147 0.691557 88.6123 0.149642 91.6253 0.232343C94.0111 0.228037 96.3882 0.520038 98.7028 1.10171C100.838 1.61083 102.88 2.45427 104.754 3.60114L102.053 10.2844C98.8797 8.38138 95.2651 7.35079 91.5713 7.29593C89.1221 7.29593 87.3122 7.69439 86.1416 8.49131C85.6019 8.81793 85.1562 9.28033 84.8483 9.83294C84.5404 10.3856 84.381 11.0093 84.3857 11.6427C84.3857 12.9468 85.0611 13.9158 86.4117 14.5497C88.4047 15.3855 90.4775 16.0136 92.5978 16.4242C94.9958 16.9701 97.3591 17.6596 99.6753 18.489C101.495 19.1664 103.119 20.2864 104.403 21.7491C105.717 23.2343 106.375 25.2447 106.375 27.7803C106.389 29.9028 105.758 31.979 104.565 33.73C103.203 35.6498 101.317 37.1313 99.1351 37.9953C96.3367 39.1174 93.3401 39.6536 90.3287 39.5711C87.396 39.584 84.4764 39.1779 81.6574 38.3648Z" fill="#0B0A0A"/>
<path d="M10.2877 91.2493C7.24521 89.6355 4.70313 87.2105 2.94009 84.24C1.18762 81.1536 0.265869 77.6608 0.265869 74.1065C0.265869 70.5523 1.18762 67.0595 2.94009 63.973C4.70313 61.0026 7.24521 58.5775 10.2877 56.9637C13.5231 55.2435 17.1366 54.3691 20.796 54.4209C23.846 54.377 26.8721 54.969 29.6834 56.1596C32.2684 57.2733 34.5547 58.9862 36.3557 61.1584L30.7369 66.3746C29.5869 64.9609 28.1348 63.8261 26.4885 63.0547C24.8422 62.2833 23.0442 61.8951 21.2282 61.9191C19.041 61.8801 16.8813 62.4137 14.9611 63.4677C13.1528 64.4712 11.6638 65.9688 10.6659 67.7873C9.65303 69.7321 9.12394 71.8948 9.12394 74.0902C9.12394 76.2856 9.65303 78.4483 10.6659 80.3931C11.6638 82.2117 13.1528 83.7092 14.9611 84.7128C16.8813 85.7667 19.041 86.3003 21.2282 86.2613C23.0492 86.2823 24.8511 85.8873 26.4982 85.1061C28.1453 84.3249 29.5947 83.1779 30.7369 81.7515L36.3557 86.9677C34.5615 89.1719 32.2628 90.9058 29.6564 92.0209C26.835 93.2094 23.8006 93.8013 20.7419 93.7596C17.103 93.8176 13.5081 92.9544 10.2877 91.2493Z" fill="#0B0A0A"/>
<path d="M87.0275 55.0892H104.208C107.97 55.0129 111.698 55.8222 115.094 57.4527C118.127 58.9174 120.678 61.2278 122.442 64.1088C124.159 67.1578 125.062 70.6023 125.062 74.1065C125.062 77.6107 124.159 81.0552 122.442 84.1042C120.678 86.9852 118.127 89.2956 115.094 90.7603C111.698 92.3908 107.97 93.2001 104.208 93.1238H87.0275V55.0892ZM103.776 85.8972C107.558 85.8972 110.574 84.8377 112.825 82.7186C115.076 80.5996 116.202 77.7289 116.202 74.1065C116.202 70.4842 115.076 67.6134 112.825 65.4944C110.574 63.3753 107.558 62.3157 103.776 62.3157H95.7798V85.8972H103.776Z" fill="#0B0A0A"/>
<path d="M160.936 86.0602V93.1238H131.654V55.0891H160.234V62.1527H140.352V70.4116H157.911V77.2416H140.352V86.0439L160.936 86.0602Z" fill="#0B0A0A"/>
<path d="M81.0036 59.5012C79.3828 56.0074 76.5355 54.3611 72.8401 54.0677C74.2556 50.9271 77.7457 48.9112 80.6956 49.4981C81.2546 49.6231 81.7497 49.9474 82.0895 50.4109C83.8292 52.9755 83.4024 56.9203 81.0036 59.5012Z" fill="#0B0A0A"/>
<path d="M63.488 84.1693C63.4069 86.6198 56.5131 86.5112 56.405 84.2182C56.3078 82.2078 58.4527 79.2411 59.9168 79.2303C61.3809 79.2194 63.5528 82.0557 63.488 84.1693Z" fill="#0B0A0A"/>
<path d="M46.9774 54.0459C43.2819 54.361 40.4239 56.0074 38.8193 59.4794C36.4151 56.8985 35.9775 52.9592 37.7388 50.3674C38.0796 49.9049 38.5743 49.581 39.1326 49.4545C42.0717 48.8895 45.5619 50.9053 46.9774 54.0459Z" fill="#0B0A0A"/>
<path d="M75.1362 83.7618C74.0466 84.1807 72.8933 84.4068 71.7271 84.4301C70.3784 84.4368 69.0596 84.0313 67.9452 83.2673C67.5802 83.6047 67.19 83.9135 66.7782 84.191V84.3051C66.681 87.2881 63.958 89.2985 60.0032 89.2985C56.0485 89.2985 53.2823 87.3316 53.1472 84.4084C53.1445 84.3613 53.1445 84.3141 53.1472 84.2671C52.7095 83.9768 52.2958 83.6516 51.91 83.2945C50.7956 84.0585 49.4768 84.464 48.1282 84.4573C46.9602 84.4341 45.805 84.2079 44.7137 83.7889C43.3481 83.3022 42.0327 82.6835 40.7859 81.9415C41.1138 82.7134 41.4948 83.4614 41.9259 84.1801C43.7028 87.1655 46.2639 89.6002 49.3275 91.2166C52.6116 92.8988 56.2448 93.7758 59.9303 93.7758C63.6158 93.7758 67.249 92.8988 70.5331 91.2166C73.5743 89.5718 76.1154 87.1289 77.8861 84.1475C78.3168 83.4314 78.6995 82.6872 79.0315 81.9198C77.7948 82.6581 76.4904 83.2749 75.1362 83.7618Z" fill="#FAFAFA"/>
<path d="M70.5007 56.9528C67.2156 55.274 63.5828 54.3989 59.8979 54.3989C56.213 54.3989 52.5802 55.274 49.2951 56.9528C47.7886 57.7588 46.3937 58.7599 45.1459 59.9304C46.2738 59.6057 47.4412 59.4411 48.6144 59.4414C51.5139 59.427 54.3238 60.4518 56.5401 62.332C58.7507 61.7525 61.0721 61.7525 63.2827 62.332C65.4986 60.451 68.3087 59.4261 71.2084 59.4414C72.357 59.4422 73.5001 59.5994 74.6067 59.9087C73.3721 58.7475 71.9917 57.7538 70.5007 56.9528Z" fill="#FAFAFA"/>
<path fill-rule="evenodd" clip-rule="evenodd" d="M51.3968 79.1097C52.5854 77.3546 54.4169 75.9691 56.162 74.7031C56.6915 74.3735 57.1166 73.8989 57.3875 73.335C57.6583 72.771 57.7636 72.141 57.6909 71.519C57.611 69.9703 57.1475 68.4663 56.3427 67.1435C55.5379 65.8207 54.4172 64.7212 53.0824 63.9447C51.8351 63.2345 50.4399 62.8277 49.0083 62.757C47.5767 62.6862 46.1485 62.9534 44.8379 63.5372C43.4782 64.1166 42.1863 64.8455 40.9858 65.7106C38.5932 67.4949 36.4396 69.5823 34.5782 71.9211C36.0426 73.7017 37.6529 75.3556 39.392 76.8656C41.2712 78.4995 43.4319 79.7739 45.7672 80.6256C47.2529 81.1527 48.5928 81.3537 49.8084 80.6745C50.4504 80.2825 50.9939 79.747 51.3968 79.1097ZM55.4596 71.645C55.4596 73.1454 54.2502 74.3618 52.7583 74.3618C51.2663 74.3618 50.0569 73.1454 50.0569 71.645C50.0569 70.1446 51.2663 68.9282 52.7583 68.9282C54.2502 68.9282 55.4596 70.1446 55.4596 71.645Z" fill="#0B0A0A"/>
<path fill-rule="evenodd" clip-rule="evenodd" d="M80.4146 76.8657C82.1581 75.3586 83.7704 73.7044 85.2338 71.9212C83.3663 69.566 81.2034 67.4639 78.7992 65.6672C77.6073 64.8039 76.3245 64.075 74.9741 63.4938C73.6136 62.8833 72.1254 62.6164 70.6389 62.7161C69.1525 62.8158 67.7127 63.2791 66.4449 64.0658C65.177 64.8525 64.1194 65.9388 63.3639 67.2301C62.6085 68.5215 62.1782 69.9789 62.1103 71.4756C62.032 72.1041 62.135 72.742 62.4071 73.3132C62.6791 73.8845 63.1087 74.3651 63.6447 74.6977C65.3952 75.9637 67.2267 77.3493 68.4099 79.1043C68.8136 79.7429 69.3591 80.2786 70.0036 80.6691C71.2138 81.3483 72.5537 81.1636 74.0394 80.6202C76.3728 79.7667 78.5328 78.4946 80.4146 76.8657ZM69.431 71.645C69.431 73.1455 68.2215 74.3618 66.7296 74.3618C65.2377 74.3618 64.0283 73.1455 64.0283 71.645C64.0283 70.1446 65.2377 68.9283 66.7296 68.9283C68.2215 68.9283 69.431 70.1446 69.431 71.645Z" fill="#0B0A0A"/>
</g>
<defs>
<clipPath id="clip0_1333_2799">
<rect width="161" height="94" fill="white"/>
</clipPath>
</defs>
</svg>
