<?xml version="1.0" standalone="no"?>
<!DOCTYPE svg PUBLIC "-//W3C//DTD SVG 20010904//EN"
 "http://www.w3.org/TR/2001/REC-SVG-20010904/DTD/svg10.dtd">
<svg version="1.0" xmlns="http://www.w3.org/2000/svg"
 width="1024.000000pt" height="1024.000000pt" viewBox="0 0 1024.000000 1024.000000"
 preserveAspectRatio="xMidYMid meet">
<metadata>
Created by potrace 1.14, written by Peter Selinger 2001-2017
</metadata>
<g transform="translate(0.000000,1024.000000) scale(0.100000,-0.100000)"
fill="#000000" stroke="none">
<path d="M1019 9576 c-2 -2 -22 -6 -44 -9 -136 -19 -286 -121 -342 -232 -9
-16 -21 -37 -27 -45 -29 -37 -102 -230 -122 -325 -51 -235 -50 -439 0 -680 48
-228 152 -451 305 -651 37 -49 73 -89 81 -89 7 0 18 14 24 30 24 68 200 355
218 355 4 0 8 4 8 9 0 13 52 73 140 161 145 145 249 221 440 319 68 34 250
109 282 115 7 2 38 10 68 19 30 9 66 19 80 21 14 3 43 10 65 15 22 5 60 12 85
16 25 3 56 8 70 10 14 2 50 7 80 10 30 3 56 8 58 9 3 4 -39 97 -48 106 -3 3
-11 16 -18 30 -20 40 -56 98 -74 120 -10 11 -18 23 -18 26 0 6 -48 66 -110
138 -77 90 -216 209 -335 287 -141 93 -380 196 -467 202 -10 1 -18 4 -18 7 0
3 -8 6 -17 6 -10 1 -34 4 -53 8 -36 8 -305 18 -311 12z"/>
<path d="M8989 9576 c-2 -2 -29 -6 -59 -9 -30 -3 -76 -12 -102 -20 -27 -8 -48
-13 -48 -11 0 7 -177 -59 -250 -94 -41 -20 -101 -53 -133 -74 -32 -21 -62 -38
-65 -38 -4 0 -18 -10 -32 -23 -14 -13 -33 -27 -42 -33 -48 -27 -202 -174 -265
-251 -21 -27 -40 -50 -43 -53 -19 -19 -90 -121 -90 -130 0 -5 -3 -10 -8 -10
-4 0 -13 -15 -21 -32 -8 -18 -18 -36 -23 -39 -5 -3 -10 -12 -12 -20 -1 -8 -12
-34 -25 -57 -12 -24 -21 -45 -19 -47 2 -2 30 -6 63 -8 33 -3 60 -6 60 -7 0 -1
16 -3 35 -5 37 -5 138 -23 180 -32 14 -4 32 -7 40 -9 60 -11 261 -80 345 -119
39 -18 73 -32 76 -31 4 1 15 -7 25 -16 11 -9 30 -22 44 -28 14 -6 34 -16 45
-23 38 -23 80 -52 85 -57 3 -4 27 -21 54 -40 56 -38 253 -230 307 -300 52 -66
139 -197 139 -210 0 -5 3 -10 8 -10 4 0 13 -15 21 -32 8 -18 25 -51 39 -72 13
-22 26 -44 27 -50 16 -61 14 -61 66 -4 27 29 49 58 49 63 0 6 9 17 20 25 11 8
20 18 20 22 0 4 14 28 31 54 189 279 291 695 256 1039 -8 73 -42 250 -52 266
-4 5 -8 18 -10 29 -6 31 -77 195 -87 198 -4 2 -8 10 -8 17 0 7 -24 45 -52 84
-74 99 -183 166 -303 188 -32 6 -281 14 -286 9z"/>
<path d="M5028 8604 c-3 -3 -53 -7 -109 -9 -97 -4 -193 -11 -281 -21 -21 -2
-64 -6 -95 -9 -32 -3 -83 -10 -113 -15 -30 -6 -71 -12 -90 -15 -19 -2 -44 -6
-55 -9 -11 -2 -67 -14 -125 -26 -58 -12 -139 -31 -180 -42 -88 -23 -107 -27
-139 -34 -13 -3 -34 -10 -45 -16 -12 -6 -22 -11 -23 -10 -2 1 -4 2 -5 1 -2 0
-10 -2 -18 -4 -47 -10 -307 -101 -385 -135 -11 -5 -42 -18 -70 -30 -27 -12
-54 -23 -60 -24 -5 -2 -45 -19 -89 -39 -43 -21 -82 -37 -86 -37 -5 0 -10 -3
-12 -7 -1 -5 -39 -26 -83 -48 -93 -46 -179 -97 -183 -107 -2 -5 -8 -8 -14 -8
-9 0 -103 -61 -260 -169 -27 -18 -48 -37 -48 -42 0 -6 -4 -8 -8 -5 -5 3 -15
-3 -24 -12 -8 -9 -27 -26 -42 -36 -28 -20 -34 -26 -116 -96 -93 -80 -105 -90
-112 -90 -5 0 -8 -5 -8 -11 0 -7 9 -9 23 -5 23 7 136 32 177 39 95 18 152 27
196 32 139 15 326 21 343 11 6 -4 11 -2 11 4 0 6 3 9 8 7 4 -3 53 -8 109 -11
57 -4 113 -9 125 -11 12 -3 40 -7 63 -10 85 -12 211 -36 235 -45 3 -1 10 -3
15 -4 32 -5 81 -19 90 -26 6 -4 26 -10 45 -14 19 -3 78 -23 130 -43 52 -21 98
-36 103 -35 4 1 7 -2 7 -8 0 -5 5 -10 10 -10 32 0 245 -115 380 -205 96 -64
109 -74 182 -132 46 -38 40 -37 115 -18 32 8 72 17 88 20 17 2 39 7 50 9 11 2
43 7 70 11 28 4 61 8 75 10 133 19 401 24 555 10 99 -9 96 -8 175 -20 53 -7
63 -9 113 -20 12 -3 36 -7 52 -10 17 -3 49 -10 72 -16 l42 -11 83 64 c46 36
103 78 128 94 25 16 47 31 50 34 3 3 21 14 40 24 19 11 37 23 40 27 3 4 21 14
40 23 19 9 49 24 65 34 17 10 32 19 35 19 3 0 23 9 45 21 58 29 235 102 235
96 0 -3 10 1 23 8 12 7 27 13 32 14 6 0 17 4 25 7 24 9 90 29 108 32 9 2 17 4
17 5 0 2 34 9 67 14 15 3 31 7 35 9 5 3 28 8 53 12 25 4 47 8 50 10 3 1 30 6
61 9 31 4 67 9 80 11 34 7 194 16 257 15 62 -1 78 0 95 1 20 2 217 -12 240
-17 12 -3 41 -7 64 -9 23 -3 77 -12 120 -21 43 -8 89 -17 103 -20 14 -3 34 -8
45 -11 11 -4 27 -8 35 -9 15 -3 -67 77 -142 139 -22 17 -50 40 -61 51 -12 10
-38 30 -57 45 -19 14 -41 32 -48 39 -7 6 -17 12 -21 12 -5 0 -21 11 -37 25
-46 40 -53 45 -64 45 -5 0 -10 5 -10 10 0 6 -7 10 -15 10 -8 0 -15 4 -15 9 0
5 -12 15 -27 23 -16 7 -53 30 -83 49 -112 73 -341 194 -470 248 -30 13 -74 32
-97 42 -23 11 -45 19 -48 19 -4 0 -21 6 -38 14 -189 83 -669 220 -884 251 -21
4 -45 8 -53 10 -8 2 -41 7 -73 10 -32 4 -68 8 -80 11 -55 11 -66 12 -257 30
-36 3 -113 7 -171 9 -59 1 -112 5 -118 9 -6 4 -11 2 -11 -4 0 -6 -5 -8 -11 -4
-15 9 -110 8 -139 -1 -15 -5 -20 -4 -16 4 8 12 3 15 -6 5z"/>
<path d="M2697 6903 c-2 -2 -31 -5 -63 -8 -32 -3 -70 -7 -84 -10 -14 -3 -38
-7 -55 -10 -46 -8 -128 -27 -150 -35 -11 -3 -58 -19 -105 -35 -84 -27 -166
-60 -287 -116 -95 -43 -177 -83 -183 -89 -3 -3 -39 -22 -80 -44 -149 -76 -484
-300 -587 -390 -7 -6 -18 -16 -25 -21 -86 -68 -204 -166 -242 -200 -12 -11
-53 -47 -91 -80 -78 -68 -425 -412 -500 -496 -77 -86 -116 -131 -165 -189 -25
-29 -53 -62 -63 -73 -16 -16 -17 -21 -5 -35 164 -198 497 -548 669 -703 15
-13 64 -58 110 -100 46 -42 120 -107 164 -143 44 -37 89 -75 100 -85 84 -76
377 -276 545 -373 123 -70 337 -178 354 -178 8 0 19 -7 26 -15 7 -9 19 -14 27
-11 7 3 13 2 13 -2 0 -4 21 -15 48 -26 26 -10 61 -24 77 -31 17 -7 48 -18 70
-25 22 -7 45 -16 50 -20 6 -3 28 -12 50 -18 22 -6 71 -21 109 -32 80 -23 109
-29 231 -46 53 -7 140 -7 190 0 22 3 54 8 70 10 49 7 146 44 198 76 27 17 50
30 53 30 21 0 199 181 254 258 134 189 297 363 480 512 23 19 50 42 60 51 10
9 44 36 76 60 33 24 64 49 71 54 7 6 18 15 26 21 7 6 35 27 62 46 300 212 350
254 407 336 33 48 84 154 92 192 3 14 10 45 15 70 15 74 3 286 -25 430 -3 14
-7 39 -10 55 -3 17 -15 62 -27 100 -11 39 -21 72 -22 75 -1 3 -5 13 -9 22 -4
9 -9 22 -10 30 -4 16 -13 38 -44 108 -14 30 -26 57 -27 60 -11 41 -137 245
-205 330 -64 82 -74 93 -156 176 -124 124 -293 249 -434 323 -62 32 -214 100
-235 105 -5 2 -19 6 -30 10 -54 21 -75 27 -135 41 -36 9 -76 18 -90 21 -14 3
-43 9 -65 13 -22 5 -47 9 -55 9 -8 0 -28 3 -45 7 -32 7 -382 15 -388 8z m1108
-1264 c126 -46 213 -109 279 -203 142 -203 133 -455 -24 -650 -37 -45 -118
-113 -132 -109 -4 2 -8 -1 -8 -6 0 -13 -95 -51 -163 -65 -54 -11 -169 -13
-207 -3 -8 2 -28 7 -45 12 -59 15 -160 71 -211 118 -148 135 -209 336 -159
532 10 43 76 175 86 175 5 0 9 5 9 12 0 16 93 105 119 113 12 3 21 10 21 14 0
9 113 62 140 66 8 2 40 6 70 10 30 4 56 8 57 9 6 5 140 -15 168 -25z"/>
<path d="M7248 6904 c-2 -1 -35 -5 -73 -8 -38 -3 -76 -8 -85 -10 -8 -3 -32 -7
-54 -11 -21 -3 -41 -7 -45 -9 -3 -2 -24 -7 -46 -10 -113 -18 -416 -141 -519
-211 -20 -14 -40 -25 -43 -25 -3 0 -28 -16 -54 -35 -27 -19 -54 -35 -59 -35
-6 0 -10 -4 -10 -8 0 -5 -21 -24 -47 -43 -55 -39 -220 -201 -278 -273 -22 -27
-46 -54 -52 -62 -7 -7 -13 -15 -13 -18 0 -3 -20 -33 -44 -68 -23 -35 -59 -92
-78 -128 -19 -36 -41 -76 -49 -90 -7 -14 -14 -29 -15 -35 -1 -5 -11 -30 -22
-55 -41 -88 -92 -258 -108 -355 -3 -20 -8 -47 -10 -59 -21 -107 -24 -349 -5
-421 29 -110 93 -227 167 -300 40 -40 180 -145 193 -145 5 0 11 -4 13 -8 2 -4
44 -37 93 -72 50 -36 92 -67 95 -70 3 -3 21 -17 40 -30 19 -13 37 -27 40 -30
3 -3 32 -27 65 -52 33 -25 72 -57 88 -71 15 -14 27 -24 27 -22 0 14 256 -238
325 -320 28 -33 55 -65 60 -71 6 -6 17 -22 25 -34 187 -276 392 -423 620 -445
19 -2 37 -4 40 -5 6 -2 115 -2 115 0 0 1 24 3 53 5 30 2 61 7 70 10 10 4 32 9
50 11 18 2 48 8 65 13 18 6 70 22 117 37 47 14 99 32 115 39 17 7 73 29 125
50 115 46 444 204 448 216 2 5 8 9 13 9 5 0 39 18 75 40 36 22 68 40 71 40 6
0 303 202 333 227 12 10 28 24 35 31 8 6 18 12 23 12 6 0 12 3 14 8 2 4 28 27
58 52 30 25 57 47 60 50 3 3 37 32 75 65 81 70 67 57 186 165 180 164 512 506
638 656 13 16 35 41 48 55 l24 27 -58 69 c-105 126 -147 173 -238 271 -165
176 -396 400 -540 522 -27 23 -70 60 -95 81 -81 68 -87 74 -116 96 -16 12 -74
57 -129 100 -56 43 -121 92 -145 108 -25 17 -50 35 -56 40 -6 6 -27 19 -47 30
-20 11 -37 23 -37 27 0 5 -6 8 -14 8 -8 0 -16 3 -18 8 -1 4 -21 16 -42 27 -22
11 -44 25 -50 30 -6 6 -37 24 -69 40 -31 17 -57 33 -57 38 0 4 -6 7 -12 7 -15
0 -124 55 -146 73 -8 6 -16 10 -16 8 -1 -2 -32 11 -71 29 -38 18 -85 38 -102
46 -18 8 -48 21 -67 29 -19 8 -37 15 -41 15 -3 0 -25 9 -49 19 -23 11 -56 22
-72 25 -16 2 -29 5 -29 6 0 1 -8 3 -17 6 -10 2 -26 6 -35 8 -10 3 -18 5 -18 6
0 5 -134 31 -230 46 -43 6 -372 14 -377 8z m-722 -1254 c27 -6 81 -26 119 -45
73 -36 185 -127 185 -151 0 -8 4 -14 9 -14 14 0 47 -62 76 -141 30 -84 38
-199 19 -272 -7 -26 -12 -50 -12 -53 0 -16 -49 -121 -64 -136 -10 -10 -18 -21
-18 -25 0 -16 -77 -89 -130 -126 -178 -121 -403 -123 -595 -4 -81 49 -197 209
-219 302 -16 63 -26 201 -16 211 3 3 6 14 6 25 1 10 3 21 4 24 3 6 3 7 15 50
31 118 145 249 268 309 31 15 77 33 104 40 63 17 187 20 249 6z"/>
<path d="M5124 3608 c-3 -4 -9 -6 -14 -3 -14 9 -73 -17 -144 -62 -73 -47 -226
-189 -226 -210 0 -7 -4 -13 -8 -13 -16 0 -190 -276 -192 -305 0 -3 -9 -24 -19
-47 -10 -24 -22 -56 -26 -73 -5 -16 -9 -33 -10 -37 -2 -5 -4 -10 -5 -13 -1 -3
-3 -8 -4 -12 -27 -118 -29 -228 -6 -276 10 -20 16 -37 13 -37 -3 0 18 -22 46
-50 74 -72 224 -141 356 -164 17 -3 41 -7 55 -10 128 -25 382 -20 510 10 14 3
34 7 45 8 11 2 20 4 20 5 0 2 11 4 23 7 36 6 171 65 187 80 7 8 17 14 22 14
16 0 81 74 104 119 52 101 15 328 -86 532 -116 231 -332 458 -494 520 -53 20
-139 30 -147 17z"/>
<path d="M8980 3071 c0 -7 -4 -9 -10 -6 -5 3 -10 2 -10 -2 0 -5 -12 -14 -27
-21 -49 -22 -88 -45 -95 -56 -4 -6 -8 -8 -8 -4 0 4 -27 -9 -61 -28 -33 -18
-67 -34 -75 -34 -8 0 -14 -3 -14 -8 0 -4 -15 -13 -32 -21 -18 -7 -62 -27 -98
-43 -36 -17 -102 -45 -148 -64 -45 -19 -95 -40 -110 -46 -32 -14 -30 -13 -67
-23 -16 -4 -34 -11 -40 -16 -11 -8 -240 -76 -284 -84 -14 -2 -50 -9 -80 -15
-172 -32 -476 -33 -596 0 -112 30 -251 80 -315 113 -123 64 -129 68 -135 78
-13 20 -36 9 -114 -59 -14 -13 -54 -44 -88 -69 -62 -46 -63 -48 -65 -97 -1
-47 -3 -62 -8 -76 -1 -3 -3 -21 -6 -40 -20 -157 -125 -353 -261 -486 -161
-157 -412 -288 -633 -330 -14 -2 -45 -9 -70 -14 -187 -40 -503 -46 -700 -15
-155 25 -236 45 -360 90 -62 22 -179 74 -190 85 -3 3 -26 16 -52 30 -27 13
-48 28 -48 32 0 5 -7 8 -15 8 -8 0 -15 4 -15 8 0 4 -12 15 -27 24 -44 26 -165
151 -210 217 -95 137 -161 331 -163 477 0 25 -8 36 -47 62 -27 17 -57 39 -68
49 -32 28 -119 99 -131 106 -7 4 -22 -2 -35 -12 -35 -27 -214 -115 -284 -139
-142 -50 -299 -76 -450 -75 -109 0 -302 22 -405 46 -87 20 -331 99 -395 127
-11 5 -60 26 -110 46 -49 20 -131 56 -182 80 -50 24 -94 44 -98 44 -4 0 -19 9
-35 20 -15 11 -29 17 -32 14 -3 -2 -11 2 -18 11 -7 8 -16 15 -21 15 -4 0 -47
23 -95 50 -48 28 -90 48 -93 45 -3 -4 -1 -9 4 -13 6 -4 11 -11 12 -17 1 -5 17
-44 37 -85 19 -41 35 -79 36 -85 1 -5 7 -17 14 -25 7 -8 27 -44 46 -80 18 -36
41 -77 52 -92 10 -14 18 -29 18 -32 0 -6 101 -168 110 -176 3 -3 23 -32 45
-65 36 -54 162 -222 189 -252 6 -6 27 -30 46 -54 128 -154 333 -353 510 -494
41 -33 77 -62 80 -65 3 -3 22 -16 42 -30 21 -14 38 -28 38 -32 0 -5 4 -8 9 -8
5 0 51 -29 102 -64 99 -67 355 -217 377 -220 6 -1 18 -8 24 -14 7 -7 15 -12
19 -12 4 0 49 -20 100 -44 84 -38 118 -53 226 -98 15 -6 37 -13 47 -15 11 -2
25 -8 32 -14 6 -5 20 -12 30 -14 11 -2 51 -15 89 -29 39 -14 78 -26 88 -26 9
0 17 -4 17 -8 0 -5 6 -9 13 -9 12 0 120 -30 147 -40 8 -3 20 -7 25 -8 6 0 17
-4 25 -7 12 -5 85 -24 130 -33 3 -1 30 -7 60 -13 78 -17 102 -22 130 -27 14
-2 36 -7 50 -10 43 -9 106 -20 180 -30 25 -3 56 -8 70 -10 25 -4 83 -10 175
-20 157 -16 542 -25 608 -14 20 4 40 2 43 -2 3 -5 10 -7 15 -3 10 6 35 8 174
19 80 6 92 7 195 21 30 4 65 8 77 9 30 4 103 16 128 22 11 2 29 6 40 7 11 2
38 7 60 11 38 7 51 10 100 20 32 7 269 65 280 69 6 2 13 4 18 5 4 0 23 7 42
15 19 8 35 13 35 10 0 -2 14 2 30 11 17 9 30 13 30 11 0 -3 37 9 83 25 45 17
87 32 92 33 6 2 19 7 30 11 11 4 54 21 95 37 41 16 103 43 138 59 35 16 65 29
68 29 6 0 213 104 261 131 97 55 202 119 214 131 8 7 26 19 41 27 15 8 37 22
47 33 11 10 23 18 26 18 6 0 77 54 103 78 7 6 16 12 20 12 4 0 27 18 52 40 25
22 50 43 55 47 145 109 407 378 588 603 75 93 250 350 239 350 -4 0 -2 4 4 8
6 4 27 36 47 72 21 36 42 72 47 80 23 36 150 290 145 290 -3 0 2 11 11 25 9
14 14 28 10 32 -3 3 -6 1 -6 -6z"/>
</g>
</svg>
