<svg width="161" height="94" viewBox="0 0 161 94" fill="none" xmlns="http://www.w3.org/2000/svg">
<symbol id="logo">
<g clip-path="url(#clip0_1384_3790)">
<path d="M23.6595 25.4604V38.9355H14.9071V25.3517L0.265869 0.900879H9.55849L19.6615 17.7991L29.7645 0.900879H38.3548L23.6595 25.4604Z" fill="currentColor"/>
<path d="M70.9329 31.872V38.9355H41.6504V0.900879H70.2306V7.96446H50.3487V16.2234H67.9074V23.0534H50.3487V31.8557L70.9329 31.872Z" fill="#FF9843"/>
<path d="M81.6574 38.3648C79.2399 37.7305 76.9596 36.653 74.931 35.1862L77.9025 28.5573C79.6631 29.8234 81.6151 30.7958 83.6834 31.4371C85.8463 32.1493 88.1068 32.516 90.3827 32.5238C92.8679 32.5238 94.7048 32.1525 95.8934 31.4099C96.4296 31.1252 96.8788 30.6993 97.1928 30.1777C97.5068 29.6561 97.674 29.0584 97.6763 28.4486C97.6806 28.0146 97.5853 27.5853 97.3979 27.1943C97.2105 26.8032 96.936 26.4608 96.5958 26.1937C95.7953 25.5443 94.8782 25.0555 93.8945 24.7538C92.8139 24.3916 91.3282 23.9931 89.4372 23.5585C87.0393 23.0126 84.6759 22.3231 82.3597 21.4937C80.5298 20.8102 78.903 19.6696 77.6324 18.1793C76.3177 16.6579 75.6604 14.6294 75.6604 12.0937C75.6385 9.95727 76.2601 7.86419 77.4433 6.08968C78.7848 4.17256 80.6529 2.69032 82.819 1.82436C85.6147 0.691557 88.6123 0.149642 91.6253 0.232343C94.0111 0.228037 96.3882 0.520038 98.7028 1.10171C100.838 1.61083 102.88 2.45427 104.754 3.60114L102.053 10.2844C98.8797 8.38138 95.2651 7.35079 91.5713 7.29593C89.1221 7.29593 87.3122 7.69439 86.1416 8.49131C85.6019 8.81793 85.1562 9.28033 84.8483 9.83294C84.5404 10.3856 84.381 11.0093 84.3857 11.6427C84.3857 12.9468 85.0611 13.9158 86.4117 14.5497C88.4047 15.3855 90.4775 16.0136 92.5978 16.4242C94.9958 16.9701 97.3591 17.6596 99.6753 18.489C101.495 19.1664 103.119 20.2864 104.403 21.7491C105.717 23.2343 106.375 25.2447 106.375 27.7803C106.389 29.9028 105.758 31.979 104.565 33.73C103.203 35.6498 101.317 37.1313 99.1351 37.9953C96.3367 39.1174 93.3401 39.6536 90.3287 39.5711C87.396 39.584 84.4764 39.1779 81.6574 38.3648Z" fill="currentColor"/>
<path d="M10.2877 91.2492C7.24521 89.6354 4.70313 87.2104 2.94009 84.2399C1.18762 81.1534 0.265869 77.6607 0.265869 74.1064C0.265869 70.5521 1.18762 67.0593 2.94009 63.9729C4.70313 61.0024 7.24521 58.5774 10.2877 56.9636C13.5231 55.2434 17.1366 54.369 20.796 54.4207C23.846 54.3768 26.8721 54.9689 29.6834 56.1595C32.2684 57.2732 34.5547 58.9861 36.3557 61.1583L30.7369 66.3745C29.5869 64.9607 28.1348 63.826 26.4885 63.0546C24.8422 62.2832 23.0442 61.895 21.2282 61.919C19.041 61.88 16.8813 62.4136 14.9611 63.4675C13.1528 64.4711 11.6638 65.9686 10.6659 67.7872C9.65303 69.732 9.12394 71.8947 9.12394 74.0901C9.12394 76.2855 9.65303 78.4482 10.6659 80.393C11.6638 82.2115 13.1528 83.7091 14.9611 84.7126C16.8813 85.7666 19.041 86.3002 21.2282 86.2612C23.0492 86.2822 24.8511 85.8872 26.4982 85.106C28.1453 84.3248 29.5947 83.1778 30.7369 81.7514L36.3557 86.9675C34.5615 89.1718 32.2628 90.9057 29.6564 92.0207C26.835 93.2093 23.8006 93.8012 20.7419 93.7595C17.103 93.8175 13.5081 92.9543 10.2877 91.2492Z" fill="currentColor"/>
<path d="M87.0275 55.0894H104.208C107.97 55.0131 111.698 55.8225 115.094 57.453C118.127 58.9176 120.678 61.228 122.442 64.109C124.159 67.158 125.062 70.6025 125.062 74.1068C125.062 77.611 124.159 81.0555 122.442 84.1044C120.678 86.9855 118.127 89.2958 115.094 90.7605C111.698 92.391 107.97 93.2004 104.208 93.1241H87.0275V55.0894ZM103.776 85.8975C107.558 85.8975 110.574 84.838 112.825 82.7189C115.076 80.5998 116.202 77.7291 116.202 74.1068C116.202 70.4844 115.076 67.6137 112.825 65.4946C110.574 63.3755 107.558 62.316 103.776 62.316H95.7798V85.8975H103.776Z" fill="currentColor"/>
<path d="M160.936 86.0605V93.124H131.654V55.0894H160.234V62.1529H140.352V70.4119H157.911V77.2418H140.352V86.0442L160.936 86.0605Z" fill="currentColor"/>
<path d="M81.0036 59.5011C79.3828 56.0073 76.5355 54.361 72.8401 54.0675C74.2556 50.927 77.7457 48.9111 80.6956 49.4979C81.2546 49.623 81.7497 49.9472 82.0895 50.4108C83.8292 52.9754 83.4024 56.9201 81.0036 59.5011Z" fill="currentColor"/>
<path d="M63.488 84.1696C63.4069 86.6201 56.5131 86.5114 56.405 84.2185C56.3078 82.2081 58.4527 79.2414 59.9168 79.2305C61.3809 79.2196 63.5528 82.0559 63.488 84.1696Z" fill="currentColor"/>
<path d="M46.9774 54.046C43.2819 54.3611 40.4239 56.0075 38.8193 59.4795C36.4151 56.8986 35.9775 52.9593 37.7388 50.3675C38.0796 49.9051 38.5743 49.5811 39.1326 49.4547C42.0717 48.8896 45.5619 50.9054 46.9774 54.046Z" fill="currentColor"/>
<path d="M75.1362 83.7619C74.0466 84.1808 72.8933 84.4069 71.7271 84.4302C70.3784 84.4369 69.0596 84.0314 67.9452 83.2674C67.5802 83.6048 67.19 83.9136 66.7782 84.1911V84.3052C66.681 87.2883 63.958 89.2987 60.0032 89.2987C56.0485 89.2987 53.2823 87.3317 53.1472 84.4085C53.1445 84.3614 53.1445 84.3143 53.1472 84.2672C52.7095 83.9769 52.2958 83.6517 51.91 83.2946C50.7956 84.0586 49.4768 84.4641 48.1282 84.4574C46.9602 84.4342 45.805 84.2081 44.7137 83.7891C43.3481 83.3024 42.0327 82.6837 40.7859 81.9417C41.1138 82.7135 41.4948 83.4615 41.9259 84.1803C43.7028 87.1656 46.2639 89.6003 49.3275 91.2167C52.6116 92.8989 56.2448 93.7759 59.9303 93.7759C63.6158 93.7759 67.249 92.8989 70.5331 91.2167C73.5743 89.572 76.1154 87.129 77.8861 84.1477C78.3168 83.4316 78.6995 82.6873 79.0315 81.9199C77.7948 82.6582 76.4904 83.275 75.1362 83.7619Z" fill="#FF9843"/>
<path d="M70.5007 56.9528C67.2156 55.274 63.5828 54.3989 59.8979 54.3989C56.213 54.3989 52.5802 55.274 49.2951 56.9528C47.7886 57.7588 46.3937 58.7599 45.1459 59.9304C46.2738 59.6057 47.4412 59.4411 48.6144 59.4414C51.5139 59.427 54.3238 60.4518 56.5401 62.332C58.7507 61.7525 61.0721 61.7525 63.2827 62.332C65.4986 60.451 68.3087 59.4261 71.2084 59.4414C72.357 59.4422 73.5001 59.5994 74.6067 59.9087C73.3721 58.7475 71.9917 57.7538 70.5007 56.9528Z" fill="#FF9843"/>
<path fill-rule="evenodd" clip-rule="evenodd" d="M51.3968 79.1099C52.5854 77.3549 54.4169 75.9693 56.162 74.7033C56.6915 74.3738 57.1166 73.8992 57.3875 73.3352C57.6583 72.7712 57.7636 72.1413 57.6909 71.5193C57.611 69.9706 57.1475 68.4665 56.3427 67.1437C55.5379 65.821 54.4172 64.7214 53.0824 63.9449C51.8351 63.2347 50.4399 62.828 49.0083 62.7572C47.5767 62.6865 46.1485 62.9537 44.8379 63.5374C43.4782 64.1168 42.1863 64.8457 40.9858 65.7108C38.5932 67.4952 36.4396 69.5826 34.5782 71.9213C36.0426 73.7019 37.6529 75.3559 39.392 76.8659C41.2712 78.4998 43.4319 79.7741 45.7672 80.6259C47.2529 81.1529 48.5928 81.354 49.8084 80.6748C50.4504 80.2828 50.9939 79.7473 51.3968 79.1099ZM55.4596 71.6452C55.4596 73.1457 54.2502 74.362 52.7583 74.362C51.2663 74.362 50.0569 73.1457 50.0569 71.6452C50.0569 70.1448 51.2663 68.9285 52.7583 68.9285C54.2502 68.9285 55.4596 70.1448 55.4596 71.6452Z" fill="currentColor"/>
<path fill-rule="evenodd" clip-rule="evenodd" d="M80.4146 76.8658C82.1581 75.3587 83.7704 73.7045 85.2338 71.9213C83.3663 69.5661 81.2034 67.464 78.7992 65.6673C77.6073 64.804 76.3245 64.0751 74.9741 63.4939C73.6136 62.8835 72.1254 62.6165 70.6389 62.7162C69.1525 62.8159 67.7127 63.2792 66.4449 64.0659C65.177 64.8526 64.1194 65.9389 63.3639 67.2303C62.6085 68.5216 62.1782 69.979 62.1103 71.4757C62.032 72.1042 62.135 72.7421 62.4071 73.3134C62.6791 73.8846 63.1087 74.3652 63.6447 74.6978C65.3952 75.9638 67.2267 77.3494 68.4099 79.1044C68.8136 79.743 69.3591 80.2787 70.0036 80.6693C71.2138 81.3485 72.5537 81.1637 74.0394 80.6204C76.3728 79.7668 78.5328 78.4947 80.4146 76.8658ZM69.431 71.6452C69.431 73.1456 68.2215 74.3619 66.7296 74.3619C65.2377 74.3619 64.0283 73.1456 64.0283 71.6452C64.0283 70.1447 65.2377 68.9284 66.7296 68.9284C68.2215 68.9284 69.431 70.1447 69.431 71.6452Z" fill="currentColor"/>
</g>
<defs>
<clipPath id="clip0_1384_3790">
<rect width="161" height="94" fill="white"/>
</clipPath>
</defs>
</symbol>
</svg>

