<svg width="116" height="100" viewBox="0 0 116 100" fill="none" xmlns="http://www.w3.org/2000/svg">
<path d="M105.711 23C102.096 15.0475 95.7439 11.3001 87.5 10.6322C90.6577 3.48367 98.4437 -1.10478 105.024 0.23094C106.271 0.515628 107.376 1.25363 108.134 2.30872C112.015 8.1463 111.063 17.1253 105.711 23Z" fill="#0B0A0A"/>
<path d="M66.4968 77.9881C66.3139 83.4398 50.7511 83.1981 50.5072 78.0969C50.2877 73.6243 55.1297 67.0242 58.4349 67.0001C61.7402 66.9759 66.6432 73.2859 66.4968 77.9881Z" fill="#0B0A0A"/>
<path d="M28.5 10.6507C20.2577 11.3669 13.8832 15.1088 10.3043 23C4.94201 17.1341 3.96595 8.18081 7.89429 2.29017C8.65449 1.23912 9.75777 0.502833 11.0032 0.215457C17.5585 -1.06887 25.3429 3.51274 28.5 10.6507Z" fill="#0B0A0A"/>
<path d="M92.639 77.1948C90.1606 78.1488 87.5369 78.6637 84.8841 78.7168C81.8162 78.732 78.8162 77.8086 76.2812 76.0687C75.4509 76.837 74.5634 77.5403 73.6266 78.1723V78.4322C73.4054 85.2255 67.2113 89.8038 58.2151 89.8038C49.2189 89.8038 42.9265 85.3245 42.6192 78.6673C42.6131 78.5601 42.6131 78.4527 42.6192 78.3455C41.6236 77.6845 40.6824 76.9438 39.8049 76.1306C37.2699 77.8705 34.2698 78.7939 31.202 78.7786C28.5451 78.7258 25.9174 78.2109 23.4348 77.2566C20.3285 76.1483 17.3362 74.7393 14.5 73.0495C15.246 74.8073 16.1125 76.5107 17.0932 78.1476C21.1353 84.9461 26.9613 90.4908 33.9303 94.1718C41.4008 98.0028 49.6655 100 58.0492 100C66.4329 100 74.6976 98.0028 82.1681 94.1718C89.0861 90.4262 94.8665 84.8629 98.8946 78.0733C99.8743 76.4425 100.745 74.7476 101.5 73C98.6869 74.6813 95.7195 76.086 92.639 77.1948Z" fill="#FF9843"/>
<path d="M82.162 16.7948C74.6911 12.9854 66.4293 11 58.0491 11C49.669 11 41.4072 12.9854 33.9363 16.7948C30.5102 18.6235 27.3378 20.8949 24.5 23.5508C27.065 22.8141 29.7201 22.4406 32.3882 22.4412C38.9823 22.4086 45.3724 24.7338 50.4129 29C55.4402 27.6852 60.7195 27.6852 65.7468 29C70.7863 24.7319 77.1771 22.4065 83.7716 22.4412C86.3836 22.4432 88.9833 22.7998 91.5 23.5015C88.6922 20.8668 85.5529 18.6121 82.162 16.7948Z" fill="#FF9843"/>
<path fill-rule="evenodd" clip-rule="evenodd" d="M39.0296 66.5396C41.7525 62.6207 45.9483 59.5268 49.9461 56.6999C51.1593 55.964 52.1332 54.9043 52.7536 53.645C53.374 52.3857 53.6152 50.979 53.4488 49.5901C53.2657 46.1319 52.204 42.7734 50.3602 39.8198C48.5164 36.8661 45.949 34.4108 42.8912 32.677C40.0338 31.0911 36.8374 30.1829 33.5577 30.0249C30.2781 29.8669 27.0062 30.4635 24.0039 31.767C20.8888 33.0608 17.9292 34.6884 15.1791 36.6201C9.69785 40.6044 4.76408 45.2655 0.5 50.4879C3.85476 54.4638 7.54362 58.157 11.5279 61.5288C15.833 65.1772 20.7828 68.0227 26.1328 69.9247C29.5364 71.1016 32.6059 71.5505 35.3908 70.0339C36.8614 69.1585 38.1065 67.9628 39.0296 66.5396ZM47.5 50C47.5 53.3137 44.8137 56 41.5 56C38.1863 56 35.5 53.3137 35.5 50C35.5 46.6863 38.1863 44 41.5 44C44.8137 44 47.5 46.6863 47.5 50Z" fill="#0B0A0A"/>
<path fill-rule="evenodd" clip-rule="evenodd" d="M104.466 61.5546C108.458 58.1985 112.15 54.5149 115.5 50.5438C111.224 45.2992 106.272 40.6181 100.768 36.6171C98.0388 34.6946 95.102 33.0716 92.0102 31.7772C88.8952 30.4179 85.4881 29.8234 82.0848 30.0454C78.6815 30.2674 75.3851 31.2992 72.4823 33.0511C69.5795 34.803 67.1581 37.2219 65.4285 40.0976C63.699 42.9733 62.7137 46.2187 62.5583 49.5516C62.3791 50.9512 62.6149 52.3717 63.2377 53.6438C63.8606 54.9159 64.8442 55.9861 66.0713 56.7268C70.079 59.546 74.2723 62.6314 76.9812 66.5396C77.9055 67.9617 79.1546 69.1546 80.6302 70.0243C83.401 71.5368 86.4686 71.1254 89.8703 69.9154C95.2124 68.0148 100.158 65.1819 104.466 61.5546ZM78.5 50C78.5 53.3137 75.8137 56 72.5 56C69.1863 56 66.5 53.3137 66.5 50C66.5 46.6863 69.1863 44 72.5 44C75.8137 44 78.5 46.6863 78.5 50Z" fill="#0B0A0A"/>
</svg>
