<svg width="28" height="28" viewBox="0 0 28 28" fill="none" xmlns="http://www.w3.org/2000/svg">
<path fill-rule="evenodd" clip-rule="evenodd" d="M14 28C21.732 28 28 21.732 28 14C28 6.26801 21.732 0 14 0C6.26801 0 0 6.26801 0 14C0 21.732 6.26801 28 14 28ZM17.8217 6.64406L9.28215 21.3001H10.5523L19.0919 6.64406H17.8217ZM21.261 19.2287C21.4043 18.7858 21.476 18.3168 21.476 17.8217C21.476 17.3267 21.4043 16.8642 21.261 16.4343C21.1307 15.9914 20.9288 15.607 20.6552 15.2813C20.3816 14.9426 20.0494 14.6756 19.6586 14.4802C19.2678 14.2847 18.8183 14.187 18.3103 14.187C17.8022 14.187 17.3462 14.2847 16.9424 14.4802C16.5515 14.6756 16.2128 14.9426 15.9262 15.2813C15.6526 15.607 15.4442 15.9914 15.3009 16.4343C15.1576 16.8642 15.0859 17.3267 15.0859 17.8217C15.0859 18.3168 15.1511 18.7858 15.2813 19.2287C15.4247 19.6716 15.6266 20.0625 15.8871 20.4012C16.1607 20.7269 16.4929 20.9874 16.8837 21.1828C17.2876 21.3783 17.7436 21.476 18.2516 21.476C18.7727 21.476 19.2352 21.3783 19.6391 21.1828C20.0429 20.9874 20.3816 20.7269 20.6552 20.4012C20.9288 20.0625 21.1307 19.6716 21.261 19.2287ZM19.9713 16.8447C20.0364 17.1573 20.069 17.483 20.069 17.8217C20.069 18.6034 19.9192 19.2417 19.6195 19.7368C19.3329 20.2188 18.877 20.4598 18.2516 20.4598C17.939 20.4598 17.6654 20.3882 17.4309 20.2449C17.2094 20.1016 17.027 19.9127 16.8837 19.6782C16.7535 19.4306 16.6558 19.1505 16.5906 18.8379C16.5255 18.5122 16.4929 18.1735 16.4929 17.8217C16.4929 17.47 16.5255 17.1378 16.5906 16.8251C16.6688 16.4994 16.7795 16.2193 16.9228 15.9848C17.0661 15.7503 17.255 15.5614 17.4895 15.4181C17.724 15.2748 17.9976 15.2032 18.3103 15.2032C18.636 15.2032 18.9095 15.2748 19.131 15.4181C19.3655 15.5614 19.5479 15.7569 19.6782 16.0044C19.8215 16.2519 19.9192 16.532 19.9713 16.8447ZM12.8191 11.6857C12.9624 11.2428 13.0341 10.7738 13.0341 10.2788C13.0341 9.78371 12.9624 9.32123 12.8191 8.89132C12.6889 8.44838 12.4869 8.06407 12.2134 7.73838C11.9398 7.39966 11.6076 7.1326 11.2167 6.93718C10.8259 6.74177 10.3765 6.64406 9.86839 6.64406C9.36031 6.64406 8.90435 6.74177 8.50049 6.93718C8.10966 7.1326 7.77095 7.39966 7.48434 7.73838C7.21076 8.06407 7.00232 8.44838 6.85901 8.89132C6.71571 9.32123 6.64406 9.78371 6.64406 10.2788C6.64406 10.7738 6.7092 11.2428 6.83947 11.6857C6.98278 12.1287 7.1847 12.5195 7.44526 12.8582C7.71884 13.1839 8.05104 13.4445 8.44187 13.6399C8.84572 13.8353 9.30169 13.933 9.80976 13.933C10.3309 13.933 10.7933 13.8353 11.1972 13.6399C11.6011 13.4445 11.9398 13.1839 12.2134 12.8582C12.4869 12.5195 12.6889 12.1287 12.8191 11.6857ZM11.5294 9.30169C11.5945 9.61435 11.6271 9.94004 11.6271 10.2788C11.6271 11.0604 11.4773 11.6988 11.1777 12.1938C10.8911 12.6758 10.4351 12.9168 9.80976 12.9168C9.4971 12.9168 9.22352 12.8452 8.98903 12.7019C8.76756 12.5586 8.58517 12.3697 8.44187 12.1352C8.31159 11.8877 8.21388 11.6076 8.14875 11.2949C8.08361 10.9692 8.05104 10.6305 8.05104 10.2788C8.05104 9.92701 8.08361 9.59481 8.14875 9.28215C8.22691 8.95646 8.33765 8.67636 8.48095 8.44187C8.62425 8.20737 8.81315 8.01847 9.04765 7.87517C9.28215 7.73186 9.55573 7.66021 9.86839 7.66021C10.1941 7.66021 10.4677 7.73186 10.6891 7.87517C10.9236 8.01847 11.106 8.21388 11.2363 8.46141C11.3796 8.70893 11.4773 8.98903 11.5294 9.30169Z" fill="#FF9843"/>
</svg>
